<svg 
 xmlns="http://www.w3.org/2000/svg"
 xmlns:xlink="http://www.w3.org/1999/xlink"
 width="70px" height="70px">
<path fill-rule="evenodd"  fill="rgb(255, 170, 57)"
 d="M9.333,35.951 C8.691,35.951 8.166,35.427 8.166,34.787 C8.166,34.146 8.691,33.622 9.333,33.622 L10.499,33.622 C11.141,33.622 11.666,34.146 11.666,34.787 C11.666,35.427 11.141,35.951 10.499,35.951 L9.333,35.951 ZM18.503,51.252 C18.958,51.706 18.958,52.440 18.503,52.894 L17.675,53.721 C17.441,53.942 17.150,54.058 16.846,54.058 C16.543,54.058 16.251,53.954 16.018,53.721 C15.563,53.266 15.563,52.533 16.018,52.079 L16.846,51.252 C17.301,50.798 18.048,50.798 18.503,51.252 ZM17.675,15.841 L18.503,16.668 C18.958,17.122 18.958,17.868 18.514,18.310 C18.281,18.531 17.990,18.647 17.686,18.647 C17.383,18.647 17.091,18.543 16.858,18.310 L16.029,17.483 C15.574,17.029 15.574,16.295 16.029,15.841 C16.485,15.387 17.220,15.387 17.675,15.841 ZM67.644,47.514 C67.411,48.108 66.734,48.411 66.139,48.178 C65.544,47.945 65.241,47.270 65.474,46.676 C66.933,42.914 67.668,38.967 67.668,34.927 C67.668,16.948 53.014,2.322 35.000,2.322 C16.986,2.322 2.332,16.948 2.332,34.927 C2.332,49.948 12.529,62.966 27.113,66.576 C27.743,66.728 28.116,67.356 27.965,67.985 C27.836,68.521 27.358,68.870 26.833,68.870 C26.740,68.870 26.646,68.858 26.553,68.835 C10.919,64.969 -0.001,51.031 -0.001,34.927 C-0.001,15.666 15.703,-0.007 35.000,-0.007 C54.297,-0.007 70.001,15.666 70.001,34.927 C70.001,39.246 69.208,43.485 67.644,47.514 ZM35.000,11.498 C34.358,11.498 33.833,10.974 33.833,10.333 L33.833,9.169 C33.833,8.528 34.358,8.004 35.000,8.004 C35.642,8.004 36.167,8.528 36.167,9.169 L36.167,10.333 C36.167,10.974 35.642,11.498 35.000,11.498 ZM36.167,30.292 C38.173,30.816 39.667,32.621 39.667,34.787 C39.667,37.360 37.578,39.445 35.000,39.445 C32.888,39.445 31.115,38.024 30.543,36.091 L22.166,36.091 C21.525,36.091 21.000,35.567 21.000,34.927 C21.000,34.286 21.525,33.762 22.166,33.762 L30.450,33.762 C30.835,32.062 32.153,30.723 33.833,30.292 L33.833,18.484 C33.833,17.844 34.358,17.320 35.000,17.320 C35.642,17.320 36.167,17.844 36.167,18.484 L36.167,30.292 ZM35.000,32.458 C33.717,32.458 32.667,33.506 32.667,34.787 C32.667,36.067 33.717,37.116 35.000,37.116 C36.283,37.116 37.333,36.067 37.333,34.787 C37.333,33.506 36.283,32.458 35.000,32.458 ZM52.337,18.659 C52.034,18.659 51.742,18.554 51.509,18.322 C51.054,17.868 51.054,17.134 51.509,16.680 L52.337,15.853 C52.792,15.399 53.527,15.399 53.982,15.853 C54.437,16.307 54.437,17.040 53.982,17.495 L53.154,18.322 C52.920,18.543 52.640,18.659 52.337,18.659 ZM37.707,43.275 C40.495,43.275 42.840,44.964 44.334,47.013 C45.815,44.964 48.160,43.275 50.961,43.275 C55.417,43.275 58.976,46.722 59.466,51.497 C59.512,51.811 59.629,52.917 59.197,54.652 C58.556,57.214 57.097,59.531 54.962,61.371 L45.244,69.673 C44.987,69.883 44.672,70.000 44.345,70.000 C44.019,70.000 43.692,69.871 43.447,69.662 L33.728,61.359 C31.593,59.519 30.135,57.202 29.493,54.640 C29.061,52.906 29.178,51.799 29.225,51.485 C29.692,46.722 33.250,43.275 37.707,43.275 ZM31.757,54.082 C32.270,56.166 33.483,58.075 35.245,59.589 L44.334,67.356 L53.434,59.589 C55.196,58.075 56.409,56.166 56.922,54.082 C57.272,52.649 57.144,51.857 57.132,51.857 C56.841,48.690 54.624,45.604 50.961,45.604 C48.405,45.604 46.329,47.712 45.395,49.796 L44.334,52.195 L43.284,49.785 C42.350,47.700 40.273,45.593 37.718,45.593 C34.055,45.593 31.850,48.690 31.558,51.741 L31.535,51.869 C31.535,51.869 31.407,52.672 31.757,54.082 ZM58.334,34.787 C58.334,34.146 58.859,33.622 59.501,33.622 L60.667,33.622 C61.309,33.622 61.834,34.146 61.834,34.787 C61.834,35.427 61.309,35.951 60.667,35.951 L59.501,35.951 C58.859,35.951 58.334,35.427 58.334,34.787 Z"/>
</svg>