<svg 
 xmlns="http://www.w3.org/2000/svg"
 xmlns:xlink="http://www.w3.org/1999/xlink"
 width="74px" height="58px">
<path fill-rule="evenodd"  fill="rgb(255, 170, 57)"
 d="M64.086,57.998 C59.092,57.998 55.043,53.969 55.043,48.999 C55.043,44.028 59.092,40.000 64.086,40.000 C69.081,40.000 73.130,44.028 73.130,48.999 C73.130,53.969 69.081,57.998 64.086,57.998 ZM64.086,41.999 C60.208,41.999 57.053,45.140 57.053,48.999 C57.053,52.859 60.208,55.998 64.086,55.998 C67.965,55.998 71.120,52.859 71.120,48.999 C71.120,45.140 67.965,41.999 64.086,41.999 ZM63.918,52.553 C63.751,52.803 63.480,52.965 63.180,52.994 C63.148,52.997 63.115,52.999 63.082,52.999 C62.817,52.999 62.560,52.894 62.371,52.706 L60.362,50.706 C59.969,50.315 59.969,49.683 60.362,49.292 C60.754,48.901 61.390,48.901 61.783,49.292 L62.925,50.429 L66.265,45.444 C66.573,44.984 67.199,44.862 67.658,45.167 C68.119,45.474 68.245,46.094 67.937,46.554 L63.918,52.553 ZM42.010,45.999 L9.914,45.999 C9.359,45.999 8.909,45.551 8.909,44.999 L8.909,21.000 C8.909,20.448 9.359,20.000 9.914,20.000 L58.058,20.000 C58.613,20.000 59.062,20.448 59.062,21.000 L59.062,33.000 C59.062,33.552 58.613,34.000 58.058,34.000 L43.014,34.000 L43.014,44.999 C43.014,45.551 42.565,45.999 42.010,45.999 ZM24.957,34.000 L10.918,34.000 L10.918,43.999 L24.957,43.999 L24.957,34.000 ZM41.005,22.000 L26.966,22.000 L26.966,32.000 L41.005,32.000 L41.005,22.000 ZM41.005,34.000 L26.966,34.000 L26.966,43.999 L41.005,43.999 L41.005,34.000 ZM57.053,32.000 L57.053,22.000 L43.014,22.000 L43.014,32.000 L57.053,32.000 ZM66.096,34.000 C65.541,34.000 65.092,33.552 65.091,33.000 L65.091,33.000 L65.091,14.001 L2.880,14.001 L2.880,51.999 L48.010,51.999 C48.565,51.999 49.014,52.446 49.014,52.999 C49.014,53.551 48.564,53.999 48.010,53.999 L48.009,53.999 L2.880,53.999 C1.770,53.999 0.870,53.103 0.870,51.999 L0.870,6.001 C0.870,4.897 1.770,4.001 2.880,4.001 L6.899,4.001 L6.899,3.001 C6.899,1.348 8.251,0.002 9.914,0.002 C11.576,0.002 12.928,1.348 12.928,3.001 L12.928,4.001 L20.937,4.001 L20.937,3.001 C20.937,1.348 22.290,0.002 23.952,0.002 C25.614,0.002 26.966,1.348 26.966,3.001 L26.966,4.001 L41.005,4.001 L41.005,3.001 C41.005,1.348 42.357,0.002 44.019,0.002 C45.681,0.002 47.034,1.348 47.034,3.001 L47.034,4.001 L55.043,4.001 L55.043,3.001 C55.043,1.348 56.395,0.002 58.058,0.002 C59.720,0.002 61.072,1.348 61.072,3.001 L61.072,4.001 L65.091,4.001 C66.201,4.001 67.101,4.897 67.101,6.001 L67.101,32.999 L67.101,32.999 L67.101,33.000 C67.101,33.552 66.651,34.000 66.096,34.000 ZM10.918,3.001 C10.918,2.449 10.469,2.002 9.914,2.002 C9.359,2.002 8.909,2.449 8.909,3.001 L8.909,8.001 L10.918,8.001 L10.918,3.001 ZM24.957,3.001 C24.957,2.449 24.507,2.002 23.952,2.002 C23.397,2.002 22.947,2.449 22.947,3.001 L22.947,8.001 L24.957,8.001 L24.957,3.001 ZM45.024,3.001 C45.024,2.449 44.574,2.002 44.019,2.002 C43.464,2.002 43.014,2.449 43.014,3.001 L43.014,8.001 L45.024,8.001 L45.024,3.001 ZM59.062,3.001 C59.062,2.449 58.613,2.002 58.058,2.002 C57.503,2.002 57.053,2.449 57.053,3.001 L57.053,8.001 L59.062,8.001 L59.062,3.001 ZM65.091,6.001 L61.072,6.001 L61.072,8.001 C61.072,9.106 60.172,10.001 59.062,10.001 L57.053,10.001 C55.943,10.001 55.043,9.106 55.043,8.001 L55.043,6.001 L47.034,6.001 L47.034,8.001 C47.034,9.106 46.134,10.001 45.024,10.001 L43.014,10.001 C41.905,10.001 41.005,9.106 41.005,8.001 L41.005,6.001 L26.966,6.001 L26.966,8.001 C26.966,9.106 26.067,10.001 24.957,10.001 L22.947,10.001 C21.837,10.001 20.937,9.106 20.937,8.001 L20.937,6.001 L12.928,6.001 L12.928,8.001 C12.928,9.106 12.028,10.001 10.918,10.001 L8.909,10.001 C7.799,10.001 6.899,9.106 6.899,8.001 L6.899,6.001 L2.880,6.001 L2.880,12.001 L65.091,12.001 L65.091,6.001 Z"/>
</svg>