<svg 
 xmlns="http://www.w3.org/2000/svg"
 xmlns:xlink="http://www.w3.org/1999/xlink"
 width="70px" height="63px">
<path fill-rule="evenodd"  fill="rgb(255, 170, 57)"
 d="M63.000,63.010 L16.234,63.010 C12.374,63.010 9.233,59.911 9.233,56.101 L9.233,47.629 L0.560,28.123 C-0.169,26.483 -0.206,24.654 0.458,22.974 C1.122,21.296 2.404,19.974 4.066,19.254 L47.218,0.569 C50.662,-0.919 54.695,0.630 56.207,4.030 L63.032,19.380 C66.877,19.398 70.001,22.487 70.001,26.286 L70.001,56.101 C70.001,59.911 66.860,63.010 63.000,63.010 ZM54.183,4.906 C53.161,2.608 50.436,1.557 48.107,2.567 L4.954,21.252 C3.832,21.738 2.967,22.631 2.518,23.767 C2.068,24.903 2.092,26.139 2.585,27.246 L9.233,42.197 L9.233,26.286 C9.233,22.477 12.374,19.377 16.234,19.377 L60.617,19.377 L54.183,4.906 ZM67.790,26.286 C67.790,23.680 65.641,21.559 63.000,21.559 L16.234,21.559 C13.593,21.559 11.444,23.680 11.444,26.286 L11.444,56.101 C11.444,58.708 13.593,60.829 16.234,60.829 L63.000,60.829 C65.641,60.829 67.790,58.708 67.790,56.101 L67.790,26.286 ZM56.912,58.243 C53.291,58.243 50.344,55.336 50.344,51.762 C50.344,48.189 53.291,45.281 56.912,45.281 C60.534,45.281 63.480,48.189 63.480,51.762 C63.480,55.336 60.534,58.243 56.912,58.243 ZM56.912,47.463 C54.510,47.463 52.555,49.392 52.555,51.762 C52.555,54.133 54.510,56.062 56.912,56.062 C59.315,56.062 61.269,54.133 61.269,51.762 C61.269,49.392 59.315,47.463 56.912,47.463 ZM54.592,40.226 L17.175,40.226 C16.565,40.226 16.070,39.738 16.070,39.136 C16.070,38.533 16.565,38.045 17.175,38.045 L54.592,38.045 C55.202,38.045 55.697,38.533 55.697,39.136 C55.697,39.738 55.202,40.226 54.592,40.226 ZM41.273,30.480 L33.190,30.480 C32.579,30.480 32.084,29.991 32.084,29.389 C32.084,28.787 32.579,28.298 33.190,28.298 L41.273,28.298 C41.883,28.298 42.378,28.787 42.378,29.389 C42.378,29.991 41.883,30.480 41.273,30.480 ZM25.558,30.480 L17.476,30.480 C16.866,30.480 16.370,29.991 16.370,29.389 C16.370,28.787 16.866,28.298 17.476,28.298 L25.558,28.298 C26.168,28.298 26.663,28.787 26.663,29.389 C26.663,29.991 26.168,30.480 25.558,30.480 ZM41.814,45.281 C45.436,45.281 48.382,48.189 48.382,51.762 C48.382,55.336 45.436,58.243 41.814,58.243 C38.192,58.243 35.246,55.336 35.246,51.762 C35.246,48.189 38.192,45.281 41.814,45.281 ZM41.814,56.062 C44.216,56.062 46.171,54.133 46.171,51.762 C46.171,49.392 44.216,47.463 41.814,47.463 C39.412,47.463 37.457,49.392 37.457,51.762 C37.457,54.133 39.412,56.062 41.814,56.062 Z"/>
</svg>