<svg 
 xmlns="http://www.w3.org/2000/svg"
 xmlns:xlink="http://www.w3.org/1999/xlink"
 width="42px" height="70px">
<path fill-rule="evenodd"  fill="rgb(255, 170, 57)"
 d="M4.266,0.000 C1.959,0.000 -0.000,1.771 -0.000,4.021 L-0.000,65.980 C-0.000,68.229 1.959,70.000 4.266,70.000 L37.734,70.000 C40.041,70.000 42.000,68.229 42.000,65.980 L42.000,4.021 C42.000,1.771 40.041,0.000 37.734,0.000 L4.266,0.000 ZM4.266,2.187 L37.734,2.187 C38.931,2.187 39.789,3.027 39.789,4.021 L39.789,65.980 C39.789,66.974 38.931,67.813 37.734,67.813 L4.266,67.813 C3.069,67.813 2.211,66.974 2.211,65.980 L2.211,4.021 C2.211,3.027 3.069,2.187 4.266,2.187 ZM4.421,8.750 L4.421,9.844 L4.421,56.875 L37.579,56.875 L37.579,8.750 L4.421,8.750 ZM6.632,10.938 L35.368,10.938 L35.368,54.687 L6.632,54.687 L6.632,10.938 ZM21.004,19.688 C14.305,19.688 8.855,25.085 8.855,31.715 C8.855,38.344 14.305,43.741 21.004,43.741 C27.704,43.741 33.158,38.344 33.158,31.715 C33.158,25.085 27.704,19.688 21.004,19.688 ZM21.004,21.691 C26.611,21.691 31.137,26.166 31.137,31.715 C31.137,37.262 26.611,41.738 21.004,41.738 C15.398,41.738 10.876,37.262 10.876,31.715 C10.876,26.166 15.398,21.691 21.004,21.691 ZM20.965,26.207 C20.357,26.217 19.870,26.711 19.878,27.314 L19.878,30.616 L16.544,30.616 C16.507,30.614 16.470,30.614 16.432,30.616 C15.822,30.647 15.352,31.161 15.383,31.766 C15.414,32.370 15.934,32.834 16.544,32.804 L19.878,32.804 L19.878,36.102 C19.869,36.706 20.357,37.203 20.967,37.212 C21.577,37.220 22.079,36.738 22.088,36.133 C22.088,36.123 22.088,36.113 22.088,36.102 L22.088,32.804 L25.421,32.804 C26.031,32.813 26.533,32.330 26.542,31.725 C26.551,31.121 26.063,30.625 25.452,30.616 C25.442,30.616 25.431,30.616 25.421,30.616 L22.088,30.616 L22.088,27.314 C22.095,26.710 21.606,26.214 20.996,26.207 C20.986,26.207 20.975,26.207 20.965,26.207 ZM20.978,59.062 C19.154,59.062 17.641,60.538 17.641,62.344 C17.641,64.149 19.154,65.625 20.978,65.625 C22.803,65.625 24.316,64.149 24.316,62.344 C24.316,60.538 22.803,59.062 20.978,59.062 ZM20.978,61.250 C21.620,61.250 22.105,61.733 22.105,62.344 C22.105,62.955 21.620,63.438 20.978,63.438 C20.337,63.438 19.852,62.955 19.852,62.344 C19.852,61.733 20.337,61.250 20.978,61.250 Z"/>
</svg>