<svg 
 xmlns="http://www.w3.org/2000/svg"
 xmlns:xlink="http://www.w3.org/1999/xlink"
 width="150px" height="150px">
<path fill-rule="evenodd"  fill="rgb(255, 255, 255)"
 d="M127.653,116.549 C128.179,115.990 128.720,115.423 129.225,114.870 C129.242,114.848 129.263,114.828 129.282,114.809 L129.289,114.797 C156.865,84.680 156.869,65.297 129.306,35.188 C129.296,35.175 129.294,35.162 129.284,35.150 C129.230,35.093 129.172,35.034 129.120,34.975 C128.696,34.514 128.239,34.038 127.804,33.573 C126.040,31.686 124.211,29.768 122.220,27.776 C85.161,-9.282 64.868,-9.284 27.808,27.776 C25.869,29.714 24.091,31.578 22.374,33.416 C21.849,33.975 21.307,34.543 20.801,35.096 L20.745,35.156 C20.741,35.159 20.740,35.164 20.740,35.164 C-6.839,65.284 -6.843,84.669 20.720,114.778 C20.731,114.789 20.732,114.803 20.743,114.814 C20.796,114.872 20.854,114.932 20.907,114.989 C21.330,115.451 21.788,115.927 22.222,116.393 C23.986,118.280 25.816,120.197 27.808,122.189 C64.866,159.247 85.159,159.249 122.220,122.188 C124.156,120.251 125.935,118.388 127.653,116.549 Z"/>
</svg>